# xmcd
#
# Track frame offsets: 
#        150
#        10514
#        19154
#        33124
#        46401
#        60888
#        78577
#        95709
#        107967
#        118230
#        126884
#        140855
#        154185
#        168670
#        186300
#        203430
#        227014
#
# Disc length: 3059 seconds
#
# Revision: 0
# Processed by: cddbd v1.5.2PL0 Copyright (c) Steve Scherf et al.
# Submitted via: ExactAudioCopy v1.0b6
#
DISCID=e30bf111
DTITLE=Hal Leonard - Blues Classics - Blues Play-Along
DYEAR=2011
DGENRE=Instructional
TTITLE0=Baby, Please Don't Go - Stereo
TTITLE1=Boom Boom - Stereo
TTITLE2=Born Under a Bad Sign - Stereo
TTITLE3=Dust My Broom - Stereo
TTITLE4=How Long, How Long Blues - Stereo
TTITLE5=I Ain't Supersititious - Stereo
TTITLE6=It Hurts Me Too - Stereo
TTITLE7=My Babe - Stereo
TTITLE8=Baby, Please Don't Go - Split
TTITLE9=Boom Boom -Split
TTITLE10=Born Under a Bad Sign - Split
TTITLE11=Dust My Broom - Split
TTITLE12=How Long, How Long Blues - Split
TTITLE13=I Ain't Superstitious - Split
TTITLE14=It Hurts Me Too - Split
TTITLE15=My Babe - Split
TTITLE16=Data
EXTD=
EXTT0=
EXTT1=
EXTT2=
EXTT3=
EXTT4=
EXTT5=
EXTT6=
EXTT7=
EXTT8=
EXTT9=
EXTT10=
EXTT11=
EXTT12=
EXTT13=
EXTT14=
EXTT15=
EXTT16=
PLAYORDER=
